<svg xmlns="http://www.w3.org/2000/svg" width="340" height="69.81" viewBox="0 0 340 69.81">
  <g id="tradebulls-logo" transform="translate(0 0.055)">
    <g id="tradebulls-logo-2" data-name="tradebulls-logo" transform="translate(-541 -352.945)">
      <g id="Group_8" transform="translate(-775 89)">
        <g id="tradebulls-logo-2-2" data-name="tradebulls-logo-2" transform="translate(420 -390.11)">
          <path id="Subtraction_50" d="M933.1,721.9h-.9V664h28.6V654l6,10v9h-20Zm-2.4,0h-.9L916,673.1H896v-9l6-10v10h28.7Z" fill="#fb0707"/>
          <path id="Path_12788" d="M995.3,664.8h-10v-5.2H1012v5.2h-9.9V692h-6.8Zm17,3.3h6.3l.3,2.5a20.883,20.883,0,0,1,4-1.9,24.719,24.719,0,0,1,4.7-1.1v5.1a34.127,34.127,0,0,0-4.6,1,26.2,26.2,0,0,0-3.9,1.5v16.7h-6.8Zm23.8,24.5a9.62,9.62,0,0,1-6.1-1.9,6.463,6.463,0,0,1-2.4-5.5,7.228,7.228,0,0,1,2.5-5.7c1.7-1.4,4.1-2.1,7.3-2.1h7.1v-.7a5.186,5.186,0,0,0-.5-2.4,3.278,3.278,0,0,0-1.9-1.3,15.815,15.815,0,0,0-3.8-.4,23.8,23.8,0,0,0-7.9,1.3v-4.8a18.487,18.487,0,0,1,4.2-1.1,29.224,29.224,0,0,1,5.1-.4c7.5,0,11.3,3.1,11.3,9.2V692h-5.9l-.4-2.2C1042.8,691.7,1039.9,692.6,1036.1,692.6Zm1.9-4.5a10.723,10.723,0,0,0,3.9-.7,7.363,7.363,0,0,0,2.7-1.9v-3.8h-6.9c-2.7,0-4,1.1-4,3.3C1033.6,687,1035.1,688.1,1038,688.1Zm28.8,4.5a10.809,10.809,0,0,1-8-2.8q-3-2.85-3-9a15.634,15.634,0,0,1,1.5-7.1,11.142,11.142,0,0,1,4.1-4.5,10.938,10.938,0,0,1,5.8-1.5,12.057,12.057,0,0,1,6.7,1.8V658.1h6.8v34h-5.9l-.4-2.2a9.84,9.84,0,0,1-3.4,2A11.58,11.58,0,0,1,1066.8,692.6Zm1.8-5a7.1,7.1,0,0,0,2.9-.5,8.069,8.069,0,0,0,2.4-1.7V674.5a7.523,7.523,0,0,0-4.9-1.9,5.647,5.647,0,0,0-4.7,2.1c-1.1,1.4-1.6,3.4-1.6,6.1,0,2.5.5,4.2,1.5,5.2a6.015,6.015,0,0,0,4.4,1.6Zm30.7,5c-4.2,0-7.5-1.1-9.9-3.2s-3.6-5.2-3.6-9.4c0-3.9,1-6.9,3.1-9.1s5.1-3.3,9.1-3.3c3.6,0,6.4.9,8.5,2.8a10.325,10.325,0,0,1,3,7.6v4.3h-17.3a5.231,5.231,0,0,0,2.5,3.9,13.9,13.9,0,0,0,6,1.1,17.22,17.22,0,0,0,3.9-.4,18.873,18.873,0,0,0,3.4-.9v4.8A17.71,17.71,0,0,1,1099.3,692.6Zm4.2-14.3V677c0-3-1.8-4.4-5.3-4.4-2.2,0-3.8.4-4.7,1.3a6.1,6.1,0,0,0-1.4,4.4Zm25,14.3a13.082,13.082,0,0,1-4.4-.7,9.634,9.634,0,0,1-3.5-2.1l-.4,2.2h-5.9V658h6.8v11.4a12.56,12.56,0,0,1,7.1-1.8c3.6,0,6.3,1,8.2,3s2.9,5.1,2.9,9.3-1,7.4-2.9,9.5C1134.6,691.5,1131.9,692.6,1128.5,692.6Zm-1.9-5a5.368,5.368,0,0,0,4.6-1.9c.9-1.2,1.4-3.2,1.4-5.8s-.5-4.5-1.4-5.6a5.744,5.744,0,0,0-4.6-1.7,7.886,7.886,0,0,0-3,.5,6.538,6.538,0,0,0-2.3,1.3v11a6.331,6.331,0,0,0,2.4,1.6,6.526,6.526,0,0,0,2.9.6Zm25.4,5a8.718,8.718,0,0,1-6.7-2.4c-1.6-1.6-2.4-4-2.4-7v-15h6.8V683a3.966,3.966,0,0,0,4.6,4.6,7.111,7.111,0,0,0,3.2-.7,7.61,7.61,0,0,0,2.6-1.8v-17h6.8V692h-6.3l-.3-2.3A12.557,12.557,0,0,1,1152,692.6Zm27.7,0c-2.3,0-4-.5-5.1-1.6s-1.6-2.8-1.6-5.1V658.2h6.8v27.2a2.155,2.155,0,0,0,.5,1.7,1.964,1.964,0,0,0,1.5.5,6.722,6.722,0,0,0,2.4-.4v4.7a8.3,8.3,0,0,1-2.1.6c-.8,0-1.6.1-2.4.1Zm14,0c-2.3,0-4-.5-5.1-1.6s-1.6-2.8-1.6-5.1V658.2h6.8v27.2a2.155,2.155,0,0,0,.5,1.7,1.964,1.964,0,0,0,1.5.5,6.722,6.722,0,0,0,2.4-.4v4.7a8.3,8.3,0,0,1-2.1.6c-.8,0-1.6.1-2.4.1Zm17.1,0a27.366,27.366,0,0,1-5-.4,17.19,17.19,0,0,1-3.9-1v-5.6a17.382,17.382,0,0,0,3.9,1.1,29.837,29.837,0,0,0,4.2.4,14.606,14.606,0,0,0,3.6-.3,1.381,1.381,0,0,0,1-1.3,1.568,1.568,0,0,0-.9-1.4,20.943,20.943,0,0,0-3.5-1.3,12.979,12.979,0,0,1-1.9-.6,13.172,13.172,0,0,1-5.2-2.8,6.249,6.249,0,0,1-1.6-4.5,6.067,6.067,0,0,1,2.5-5.3c1.7-1.2,4.4-1.8,8-1.8a28.277,28.277,0,0,1,4.1.3,22.077,22.077,0,0,1,3.5.8v5.6a16.04,16.04,0,0,0-3.1-1c-1.1-.2-2.2-.3-3.3-.4a21.861,21.861,0,0,0-3.6.3c-.8.2-1.2.6-1.2,1.3a1.34,1.34,0,0,0,.8,1.3,17.26,17.26,0,0,0,3.2,1.1l1.7.5a17.9,17.9,0,0,1,4.5,1.9,6.039,6.039,0,0,1,2.2,2.3,8.424,8.424,0,0,1,.7,3.5,6.063,6.063,0,0,1-2.7,5.4c-1.9,1.3-4.5,1.9-8,1.9Z" fill="#24b7cc"/>
        </g>
        <path id="Path_16" d="M1416.1,320.7h2.2l2.4,6.9h0l2.4-6.9h2.1l-3.6,9.8c-.2.4-.3.8-.5,1.2a8.794,8.794,0,0,1-.6,1,2.177,2.177,0,0,1-.9.7,3.079,3.079,0,0,1-1.3.3,6.6,6.6,0,0,1-1.4-.1v-1.7c.2,0,.3.1.5.1h.5a1.268,1.268,0,0,0,.6-.1c.1-.1.3-.1.4-.3.1-.1.2-.3.3-.4.1-.2.1-.4.2-.5l.2-.7Zm18.2,9.6a4.477,4.477,0,0,1-2-.4,3.957,3.957,0,0,1-1.5-1,4.617,4.617,0,0,1-.9-1.5,6.449,6.449,0,0,1-.3-2,6.927,6.927,0,0,1,.3-2,3.765,3.765,0,0,1,.9-1.5,3.957,3.957,0,0,1,1.5-1,5.2,5.2,0,0,1,4,0,3.957,3.957,0,0,1,1.5,1,4.617,4.617,0,0,1,.9,1.5,6.449,6.449,0,0,1,.3,2,6.927,6.927,0,0,1-.3,2,3.765,3.765,0,0,1-.9,1.5,3.957,3.957,0,0,1-1.5,1A6.466,6.466,0,0,1,1434.3,330.3Zm0-1.7a2.662,2.662,0,0,0,1.2-.3,2.047,2.047,0,0,0,.8-.8,3.7,3.7,0,0,0,.5-1.1,3.7,3.7,0,0,0,0-2.4,3.128,3.128,0,0,0-.5-1,1.779,1.779,0,0,0-.8-.7,2.55,2.55,0,0,0-2.4,0,2.7,2.7,0,0,0-.8.7,3.7,3.7,0,0,0-.5,1.1,4.87,4.87,0,0,0-.1,1.2,5.021,5.021,0,0,0,.2,1.2,5.361,5.361,0,0,0,.5,1.1,3.042,3.042,0,0,0,.8.8A3.6,3.6,0,0,0,1434.3,328.6Zm18.3,1.4h-2v-1.3h0a2.346,2.346,0,0,1-1.1,1.1,2.822,2.822,0,0,1-1.5.4,3.437,3.437,0,0,1-2.7-.9,3.907,3.907,0,0,1-.8-2.7v-5.9h2.1v5.7a2.155,2.155,0,0,0,.5,1.7,1.9,1.9,0,0,0,1.3.5,4.252,4.252,0,0,0,1.1-.2,1.793,1.793,0,0,0,.7-.5,2.011,2.011,0,0,0,.4-.8,3.4,3.4,0,0,0,.1-1v-5.4h2.1Zm5.8-9.3h1.9v1.8h0a1.611,1.611,0,0,1,.4-.7c.2-.2.4-.5.6-.7a2.177,2.177,0,0,1,.8-.5,2.92,2.92,0,0,1,.9-.2h.8v2a.6.6,0,0,1-.4-.1h-.4a3.553,3.553,0,0,0-1,.2,2.407,2.407,0,0,0-.8.6,3.128,3.128,0,0,0-.5,1,5.9,5.9,0,0,0-.2,1.4v4.4h-2.1v-9.2Zm17.7-3.6h10.4V319h-4.1v11h-2.2V319.1h-4.1v-2Zm15.6,0h9.3V319h-7v3.4h6.5v1.8H1494V328h7.1v1.9h-9.4Zm23.6,4.1a2.993,2.993,0,0,0-.4-1,5.546,5.546,0,0,0-.6-.8,4.053,4.053,0,0,0-.9-.5,5.02,5.02,0,0,0-1.2-.2,3.923,3.923,0,0,0-1.8.4,3.178,3.178,0,0,0-1.2,1.1,4.593,4.593,0,0,0-.7,1.6,5.538,5.538,0,0,0-.2,1.8,11.021,11.021,0,0,0,.2,1.8,4.6,4.6,0,0,0,.7,1.6,3.179,3.179,0,0,0,1.2,1.1,3.661,3.661,0,0,0,1.8.4,2.769,2.769,0,0,0,1.3-.3,3.592,3.592,0,0,0,1-.7,2.383,2.383,0,0,0,.6-1.1,3.08,3.08,0,0,0,.3-1.3h2.2a5.373,5.373,0,0,1-.5,2.1,6.447,6.447,0,0,1-1.1,1.6,6.191,6.191,0,0,1-1.7,1.1,5.222,5.222,0,0,1-2.1.4,7.511,7.511,0,0,1-2.6-.5,5.223,5.223,0,0,1-1.9-1.4,6.343,6.343,0,0,1-1.2-2.1,8.65,8.65,0,0,1,0-5.2,7.2,7.2,0,0,1,1.2-2.1,7,7,0,0,1,1.9-1.5,4.678,4.678,0,0,1,2.6-.5,6.448,6.448,0,0,1,2,.3,5.559,5.559,0,0,1,1.7.9,4.07,4.07,0,0,1,1.2,1.4,6.031,6.031,0,0,1,.6,1.9Zm7.9-4.1h2.2v5.1h5.9v-5.1h2.2V330h-2.2v-5.8h-5.9V330h-2.2Zm16.3,7h5.2V326h-5.2Zm13.4-1.6h3.7a1.536,1.536,0,0,0,1.3-.5,1.3,1.3,0,0,0,.5-1.3,1.553,1.553,0,0,0-.5-1.4,2.3,2.3,0,0,0-1.4-.4h-3.7Zm-2.3-5.4h6.2a4.592,4.592,0,0,1,2.8.8,2.8,2.8,0,0,1,1,2.4,2.618,2.618,0,0,1-.5,1.7,2.587,2.587,0,0,1-1.4,1.1h0a2.654,2.654,0,0,1,1.8,1.1,4.031,4.031,0,0,1,.6,2.2,3.193,3.193,0,0,1-.3,1.4,4.438,4.438,0,0,1-.8,1.1,5.3,5.3,0,0,1-1.5.8,7.612,7.612,0,0,1-2.1.3h-5.9Zm2.3,11.1h4a2.767,2.767,0,0,0,1.6-.5,2.035,2.035,0,0,0,.6-1.5,1.917,1.917,0,0,0-2.2-2h-4Zm14-11.1h6.1a4.623,4.623,0,0,1,3.2.9,3.467,3.467,0,0,1,1.1,2.6,4.011,4.011,0,0,1-.3,1.5,8.794,8.794,0,0,1-.6,1,1.794,1.794,0,0,1-.7.5,1.689,1.689,0,0,1-.5.2h0a1.421,1.421,0,0,1,.6.2,2.651,2.651,0,0,1,.6.5,2.178,2.178,0,0,1,.5.8,5.068,5.068,0,0,1,.2,1.3,14.923,14.923,0,0,0,.2,2.1,2.946,2.946,0,0,0,.5,1.3h-2.4a1.613,1.613,0,0,1-.3-.9v-1a7.57,7.57,0,0,0-.1-1.5,4.87,4.87,0,0,0-.4-1.1,1.555,1.555,0,0,0-.8-.6,5.067,5.067,0,0,0-1.3-.2h-3.3V330H1567V317.1Zm2.3,5.9h3.7a1.917,1.917,0,0,0,2.2-2,1.8,1.8,0,0,0-.2-1,2.652,2.652,0,0,0-.5-.6c-.2-.1-.5-.2-.7-.3-.3,0-.6-.1-.8-.1h-3.6v4Zm19.5-4.3a3.923,3.923,0,0,0-1.8.4,3.178,3.178,0,0,0-1.2,1.1,4.593,4.593,0,0,0-.7,1.6,5.538,5.538,0,0,0-.2,1.8,11.021,11.021,0,0,0,.2,1.8,4.6,4.6,0,0,0,.7,1.6,3.179,3.179,0,0,0,1.2,1.1,3.661,3.661,0,0,0,1.8.4,3.923,3.923,0,0,0,1.8-.4,3.178,3.178,0,0,0,1.2-1.1,4.593,4.593,0,0,0,.7-1.6,5.538,5.538,0,0,0,.2-1.8,11.021,11.021,0,0,0-.2-1.8,4.6,4.6,0,0,0-.7-1.6,3.179,3.179,0,0,0-1.2-1.1,3.661,3.661,0,0,0-1.8-.4Zm0-1.9a7.511,7.511,0,0,1,2.6.5,4.54,4.54,0,0,1,1.9,1.5,6.343,6.343,0,0,1,1.2,2.1,8.65,8.65,0,0,1,0,5.2,7.2,7.2,0,0,1-1.2,2.1,5.222,5.222,0,0,1-1.9,1.4,5.753,5.753,0,0,1-2.6.5,7.511,7.511,0,0,1-2.6-.5,5.223,5.223,0,0,1-1.9-1.4,6.343,6.343,0,0,1-1.2-2.1,8.65,8.65,0,0,1,0-5.2,7.2,7.2,0,0,1,1.2-2.1,7,7,0,0,1,1.9-1.5,7.986,7.986,0,0,1,2.6-.5Zm11.9.3h2.2V323l5.7-5.9h2.8l-5.1,5.1,5.5,7.7h-2.8l-4.2-6.1-1.8,1.8v4.3h-2.2V317.1Zm16,0h9.3V319h-7v3.4h6.5v1.8h-6.5V328h7.1v1.9h-9.4Zm15,0h6.1a4.623,4.623,0,0,1,3.2.9,3.467,3.467,0,0,1,1.1,2.6,4.011,4.011,0,0,1-.3,1.5,8.794,8.794,0,0,1-.6,1,1.794,1.794,0,0,1-.7.5,1.689,1.689,0,0,1-.5.2h0a1.421,1.421,0,0,1,.6.2,2.651,2.651,0,0,1,.6.5,2.178,2.178,0,0,1,.5.8,5.068,5.068,0,0,1,.2,1.3,14.923,14.923,0,0,0,.2,2.1,2.946,2.946,0,0,0,.5,1.3h-2.4a1.613,1.613,0,0,1-.3-.9v-1a7.57,7.57,0,0,0-.1-1.5,4.87,4.87,0,0,0-.4-1.1,1.555,1.555,0,0,0-.8-.6,5.067,5.067,0,0,0-1.3-.2h-3.3V330h-2.2Zm2.2,5.9h3.7a1.917,1.917,0,0,0,2.2-2,1.8,1.8,0,0,0-.2-1,2.652,2.652,0,0,0-.5-.6c-.2-.1-.5-.2-.7-.3-.3,0-.6-.1-.8-.1h-3.7Z" fill="#8e8e8e"/>
      </g>
    </g>
    <path id="Union_3" data-name="Union 3" d="M0,5a5,5,0,1,1,5,5A5,5,0,0,1,0,5ZM.667,5A4.333,4.333,0,1,0,5,.667,4.338,4.338,0,0,0,.667,5ZM6.733,7.5a.652.652,0,0,1-.059-.179A3.377,3.377,0,0,1,6.638,6.9L6.594,6A.752.752,0,0,0,6.2,5.292a1.62,1.62,0,0,0-.655-.1H3.888V7.5H3.159V2.12H5.65A2.491,2.491,0,0,1,6.664,2.3a1.271,1.271,0,0,1,.758,1.271,1.43,1.43,0,0,1-.2.79,1.444,1.444,0,0,1-.559.495,1.094,1.094,0,0,1,.474.337,1.2,1.2,0,0,1,.178.677l.026.721a2.21,2.21,0,0,0,.052.457.451.451,0,0,0,.234.33V7.5ZM3.888,4.585H5.572a1.416,1.416,0,0,0,.811-.2.835.835,0,0,0,.3-.739.793.793,0,0,0-.418-.784,1.362,1.362,0,0,0-.6-.11H3.888Z" transform="translate(330 8.945)" fill="#8e8e8e"/>
  </g>
</svg>
